HIERARCHY
ROOT Bip001
{
 OFFSET 0.000000 0.000000 0.000000
 CHANNELS 6 Xposition Yposition Zposition Xrotation Yrotation Zrotation
 JOINT Bip001_Pelvis
 {
  OFFSET -0.041037 -0.005508 0.164154
  CHANNELS 3 Xrotation Yrotation Zrotation
  JOINT Bip001_Spine
  {
   OFFSET 0.044300 0.005946 0.077000
   CHANNELS 3 Xrotation Yrotation Zrotation
   JOINT Bip001_Spine1
   {
    OFFSET -0.000001 -0.000000 0.153780
    CHANNELS 3 Xrotation Yrotation Zrotation
    JOINT Bip001_Spine2
    {
     OFFSET 0.018201 0.002443 0.152706
     CHANNELS 3 Xrotation Yrotation Zrotation
     JOINT Bip001_Neck
     {
      OFFSET -0.043344 -0.005818 0.211513
      CHANNELS 3 Xrotation Yrotation Zrotation
      JOINT Bip001_Head
      {
       OFFSET -0.023929 -0.003212 0.056390
       CHANNELS 3 Xrotation Yrotation Zrotation
       End Site
       {
        OFFSET 0.000000 0.000000 0.000000
       }
      }
     }
     JOINT Bip001_L_Clavicle
     {
      OFFSET -0.029718 -0.053419 0.132514
      CHANNELS 3 Xrotation Yrotation Zrotation
      JOINT Bip001_L_UpperArm
      {
       OFFSET 0.024789 -0.162222 -0.026916
       CHANNELS 3 Xrotation Yrotation Zrotation
       JOINT Bip001_L_Forearm
       {
        OFFSET -0.026577 -0.286863 -0.153731
        CHANNELS 3 Xrotation Yrotation Zrotation
        JOINT Bip001_L_Hand
        {
         OFFSET -0.089077 -0.239781 -0.130038
         CHANNELS 3 Xrotation Yrotation Zrotation
         End Site
         {
          OFFSET 0.000000 0.000000 0.000000
         }
        }
       }
      }
     }
     JOINT Bip001_R_Clavicle
     {
      OFFSET -0.042752 0.043692 0.132514
      CHANNELS 3 Xrotation Yrotation Zrotation
      JOINT Bip001_R_UpperArm
      {
       OFFSET -0.018865 0.163017 -0.026916
       CHANNELS 3 Xrotation Yrotation Zrotation
       JOINT Bip001_R_Forearm
       {
        OFFSET -0.101279 0.269702 -0.153731
        CHANNELS 3 Xrotation Yrotation Zrotation
        JOINT Bip001_R_Hand
        {
         OFFSET -0.149152 0.207806 -0.130038
         CHANNELS 3 Xrotation Yrotation Zrotation
         End Site
         {
          OFFSET 0.000000 0.000000 0.000000
         }
        }
       }
      }
     }
    }
   }
  }
  JOINT Bip001_L_Thigh
  {
   OFFSET 0.011035 -0.082219 0.000000
   CHANNELS 3 Xrotation Yrotation Zrotation
   JOINT Bip001_L_Calf
   {
    OFFSET 0.010188 -0.013597 -0.536358
    CHANNELS 3 Xrotation Yrotation Zrotation
    JOINT Bip001_L_Foot
    {
     OFFSET 0.072725 0.000243 -0.475449
     CHANNELS 3 Xrotation Yrotation Zrotation
     End Site
     {
      OFFSET 0.000000 0.000000 0.000000
     }
    }
   }
  }
  JOINT Bip001_R_Thigh
  {
   OFFSET -0.011035 0.082219 0.000000
   CHANNELS 3 Xrotation Yrotation Zrotation
   JOINT Bip001_R_Calf
   {
    OFFSET 0.006242 0.015802 -0.536358
    CHANNELS 3 Xrotation Yrotation Zrotation
    JOINT Bip001_R_Foot
    {
     OFFSET 0.070215 0.018943 -0.475449
     CHANNELS 3 Xrotation Yrotation Zrotation
     End Site
     {
      OFFSET 0.000000 0.000000 0.000000
     }
    }
   }
  }
 }
}
MOTION
Frames: 13
Frame Time: 0.033333
7.167865 0.787387 -10.483449 -82.001319 15.839442 -130.629768 20.248977 0.960924 2.792657 28.441705 2.573041 -0.313769 7.108266 0.635412 0.023284 2.842149 0.234684 0.134079 -22.555361 6.166831 1.143936 5.427656 2.927687 25.549810 -0.137502 -3.289196 -4.019932 -28.261940 43.486371 10.019116 -12.802360 5.428935 -26.058753 16.611841 -21.718777 -2.021005 -0.384493 3.539838 7.686558 -9.003749 -27.660106 29.897330 -14.172992 -6.633988 28.965456 43.576446 46.873826 11.869073 -41.971459 -20.600319 -1.973652 22.685012 1.328996 0.412396 18.536685 10.339570 -9.151150 -29.583307 -0.484914 1.114650 51.185534 -3.228017 -0.034351 -19.147804 7.625719 1.458390
7.270103 0.806899 -10.512309 -84.879267 16.262348 -126.326063 20.269173 1.002058 2.884581 29.668347 1.606208 -0.569643 7.374213 0.374654 -0.300108 2.938249 0.117387 -0.284670 -23.687969 6.582329 1.226959 5.776136 2.824712 22.604611 -0.196991 -2.776801 -5.347871 -30.221987 44.367569 6.688048 -11.750520 4.770815 -23.738928 18.207736 -22.441832 -2.769060 -0.140151 1.083809 10.234842 -11.085448 -25.280939 30.349566 -7.778474 -2.746706 14.961249 50.082852 37.704350 5.346463 -43.175033 -17.836824 3.847530 26.813424 1.588593 0.394663 12.092642 12.405259 -12.254121 -33.014726 -1.086711 0.179008 46.204158 -2.886443 -0.154536 -13.186378 6.014163 4.662602
7.367952 0.823247 -10.539463 -87.502349 15.013259 -121.364143 20.451885 0.883529 2.471649 30.435611 -0.242295 -0.487524 7.520469 -0.039339 -0.568288 3.002696 -0.093765 -0.484199 -24.572801 6.411291 1.169400 3.870549 2.992634 19.768561 -0.222829 -2.259410 -7.132214 -31.826370 45.754510 3.090679 -10.798850 4.104817 -21.562875 16.945196 -23.137752 -3.094250 0.184406 -0.796175 10.850762 -14.672850 -24.825622 26.852452 -2.781259 -1.005304 5.420797 56.497081 31.727463 -4.522068 -45.257503 -15.048459 9.202648 35.101715 2.181894 0.340545 8.120834 11.586667 -5.154969 -39.986401 -1.463328 0.063347 43.351762 -2.666863 -0.226137 1.771224 2.468370 9.478896
7.459381 0.829778 -10.558809 -88.626059 14.082196 -117.514378 20.577936 1.101971 2.770892 30.959810 -2.451768 -0.516447 7.603864 -0.619040 -0.715254 3.030283 -0.309318 -0.788498 -24.889828 5.957417 1.107574 1.576495 3.534452 17.621512 -0.297988 -2.418149 -8.295184 -30.979829 47.298766 -1.054060 -10.218660 3.645726 -20.176963 16.241588 -23.181583 -3.275717 0.331817 -1.668163 10.409044 -21.996162 -28.191723 15.571557 -0.890068 -0.459111 1.579147 51.362429 27.065717 -6.837150 -46.899883 -13.278747 13.120031 46.215869 2.997825 0.153222 5.621451 9.788850 0.476253 -43.865595 -2.467845 1.915520 44.552885 -3.001507 -0.188508 5.241130 0.451519 13.925705
7.540677 0.826659 -10.573110 -88.930861 13.317539 -112.423257 20.770736 1.298823 2.497923 31.062313 -5.031736 -0.521474 7.622745 -1.307143 -1.192872 3.067082 -0.575608 -1.299569 -24.925123 5.312422 0.992692 -0.142030 3.860372 16.586872 -0.351962 -2.709449 -8.829096 -27.480800 48.315851 -6.602658 -10.202627 3.702606 -20.068842 16.511064 -23.129090 -3.988032 0.323434 -1.875786 9.624911 -34.885924 -32.614004 -3.923652 -1.222142 -0.619193 2.523916 37.938175 23.371342 -4.643598 -47.610294 -13.114857 15.395060 59.017438 3.506329 -0.190050 3.796083 8.152518 2.474569 -46.499380 -3.824072 4.658100 47.194988 -3.019089 -0.155247 5.323520 -0.215149 17.483353
7.617873 0.799662 -10.585248 -88.456705 14.442906 -107.959629 20.682564 1.224382 2.030868 30.499331 -7.645360 -1.257655 7.471514 -1.999599 -2.244586 2.988036 -0.774933 -2.606995 -25.069892 4.200954 0.864076 0.787944 4.026054 15.769114 -0.318117 -2.385024 -8.466889 -18.450795 45.810588 -15.453224 -11.465627 4.541501 -22.839673 16.754335 -24.609797 -4.698748 0.373004 -2.623817 8.643138 -49.962791 -32.183561 -25.533336 -2.597340 -0.824476 5.318346 23.484868 18.747765 -2.522602 -44.514961 -14.363926 16.627487 70.945960 4.160809 -0.671099 3.209753 7.504032 1.220441 -45.680196 -6.036022 7.364737 51.801300 -3.224728 -0.030449 -0.131264 4.908780 15.239456
7.680813 0.761874 -10.608264 -88.636891 17.567643 -101.415289 20.542919 1.253235 2.443261 30.115257 -9.889298 -2.512030 7.327096 -2.667634 -3.679976 2.974635 -0.993861 -3.929272 -25.281034 2.898788 0.628771 1.946320 3.715517 15.781370 -0.355391 -3.002720 -8.048905 -9.205310 42.757547 -23.382732 -13.393547 5.878376 -26.830785 18.361577 -29.739669 -6.108999 0.284068 -3.100175 6.341683 -59.717097 -28.415541 -42.241553 -4.571583 -1.285739 9.263363 9.158385 12.751350 -2.189568 -37.892328 -15.899958 17.821555 79.655565 4.613252 -1.072945 4.985099 7.253598 -1.326574 -44.542874 -7.381825 5.883556 53.293086 -3.350300 0.015469 -6.821453 7.064379 10.627819
7.740232 0.733549 -10.635861 -89.260130 20.096948 -97.381490 20.342202 1.149202 2.269557 29.649474 -10.958481 -3.812681 7.166061 -3.019129 -4.979860 2.912408 -1.104377 -5.313212 -25.417649 1.837666 0.417157 2.755161 3.547634 16.223719 -0.348566 -3.319928 -7.661951 -2.427218 39.856989 -27.879757 -15.124773 7.228657 -30.726571 17.580024 -35.023712 -8.631914 0.125651 -3.123360 4.045766 -64.880227 -24.668255 -53.877431 -6.660905 -2.238787 13.610578 -2.574074 3.553069 -3.809847 -29.766148 -15.913289 19.658696 83.800440 4.713625 -1.317182 7.156147 8.079072 -4.425430 -44.474124 -7.450571 4.029634 53.849908 -3.387067 0.005015 -8.732737 7.654330 8.195073
7.803612 0.722377 -10.659283 -90.419327 22.276498 -96.143232 20.133571 1.103180 1.683213 28.922870 -9.921704 -5.042244 7.037166 -2.835291 -6.150816 2.886133 -0.979345 -6.381198 -25.573128 1.186709 0.356715 3.177863 3.181696 17.498234 -0.295479 -2.976079 -7.149741 0.846093 38.565548 -27.498133 -16.517393 8.733068 -34.624158 12.693999 -38.782543 -12.309219 -0.005670 -2.412070 2.048583 -66.028501 -22.714294 -59.880194 -8.715553 -3.261715 17.116558 -9.807243 -9.026267 -8.409172 -19.889588 -12.482366 21.585985 80.340382 4.539717 -1.101753 9.319277 9.965919 -7.039552 -46.013238 -4.875343 1.340805 52.565347 -3.334162 -0.040745 -3.298688 5.876141 9.130661
7.874688 0.731892 -10.677230 -91.473973 22.319834 -97.071040 20.353738 1.159321 1.524966 26.694674 -8.247288 -6.195012 6.471912 -2.357910 -6.949211 2.668812 -0.792972 -7.144630 -24.973092 -0.203227 0.084621 4.310869 3.306965 18.633553 -0.354786 -3.849336 -6.354397 1.827177 40.562266 -24.902574 -16.984222 8.879859 -35.984774 8.400658 -34.719653 -12.516182 -0.054153 -1.976025 0.479609 -65.522418 -21.298742 -60.757663 -9.632166 -3.689040 18.753381 -8.818302 -15.978166 -8.033249 -15.538775 -5.699395 20.288400 70.977703 4.059851 -0.652966 3.188920 7.016983 -5.059191 -47.036401 -2.332982 -0.583706 46.543307 -2.970100 -0.146377 -0.329000 5.270343 9.395307
7.959815 0.747212 -10.692291 -92.850433 21.269809 -95.478164 20.053019 1.247712 1.194636 24.529350 -5.635499 -6.382089 5.976943 -1.685064 -6.905415 2.444227 -0.531093 -6.906648 -22.663307 -2.809994 -0.342801 5.331599 3.520695 18.782207 -0.425011 -5.385744 -5.701759 1.764167 42.752031 -22.287681 -17.482830 9.846330 -37.162378 12.583805 -32.448837 -10.295546 -0.017713 -0.650061 -0.719456 -65.991371 -20.690611 -62.202809 -9.716671 -3.817029 19.157229 -4.580915 -20.010160 -6.269874 -13.199814 -0.328429 18.487757 62.196311 3.814086 -0.287674 -3.884316 2.143205 -3.253135 -48.077552 -1.148061 -0.470761 38.943403 -2.563160 -0.247415 -4.381818 -1.017646 8.212467
8.054487 0.760108 -10.709229 -94.031393 20.372411 -95.071109 20.212507 1.248018 1.348821 22.805457 -2.102450 -6.679790 5.609013 -0.790292 -6.797170 2.258312 -0.202368 -6.907525 -20.524618 -5.849595 -0.904752 6.667867 3.609530 17.408404 -0.468632 -6.580192 -5.192554 3.231792 42.475385 -21.862008 -18.736828 11.221177 -40.716585 15.823373 -30.671403 -8.266968 0.170399 2.034871 -2.950734 -63.750629 -23.161014 -66.776787 -12.284113 -5.277925 24.519926 -3.005147 -23.188594 -9.164173 -14.832995 1.102101 17.732039 56.352941 3.497171 -0.103525 -13.023628 -1.484075 -3.033157 -47.303631 1.074633 0.890317 33.229536 -2.141389 -0.307683 -16.474927 -8.444021 3.893077
8.147291 0.777463 -10.732668 -93.791825 19.231659 -93.810334 20.277871 1.172503 1.413790 21.583708 -0.802539 -6.757796 5.362370 -0.454783 -6.794397 2.110865 -0.044934 -6.848969 -19.715516 -7.889167 -1.306018 7.285598 3.438373 16.645593 -0.465474 -8.177594 -4.482681 5.130066 42.211085 -22.611665 -20.050925 12.635897 -43.980069 13.419963 -28.627634 -9.975348 0.435465 3.974327 -4.804851 -60.132462 -25.872048 -66.357693 -14.325741 -6.628421 29.153954 -3.957605 -24.192219 -11.233172 -17.573127 0.681035 17.655621 51.717746 3.231487 0.024919 -19.613243 -3.594437 -3.921188 -47.112916 0.398596 4.134840 30.113838 -1.915873 -0.334470 -18.064976 -6.555135 -3.407051
